<svg width="80" height="70" viewBox="0 0 80 70" fill="none" xmlns="http://www.w3.org/2000/svg">
<path d="M3.99999 66.5C3.99999 66.5 21.6915 40.8686 40.2283 58.4894M40.2283 58.4894C21.0001 67.0004 18.5001 72.5004 40.2283 58.4894ZM40.2283 58.4894C73.4376 85.0902 26.9058 21.6158 58 2.5" stroke="#B5FA82" stroke-width="5" stroke-linecap="round"/>
<path d="M44.7017 41.2087C44.7017 41.2087 33.203 40.7393 25.6592 33.366C18.1154 25.9927 17.3833 14.5077 17.3833 14.5077C17.3833 14.5077 28.882 14.9772 36.4258 22.3505C43.9695 29.7238 44.7017 41.2087 44.7017 41.2087Z" fill="white"/>
<path d="M51.8803 39C51.8803 39 62.4126 36.1452 68.4155 27.4712C74.4185 18.7972 72.9519 7.38279 72.9519 7.38279C72.9519 7.38279 61.7526 10.0317 55.7496 18.7057C49.7467 27.3797 51.8803 39 51.8803 39Z" fill="white"/>
</svg>
